<svg width="18" height="16" viewBox="0 0 18 16" fill="none" xmlns="http://www.w3.org/2000/svg">
<path d="M4.07812 6.82507C3.03646 6.82507 2.1901 6.56466 1.53906 6.04382C0.888021 5.49044 0.5625 4.75802 0.5625 3.84656C0.5625 3.0002 0.888021 2.28406 1.53906 1.69812C2.1901 1.07963 2.98763 0.770386 3.93164 0.770386C5.16862 0.770386 6.16146 1.24239 6.91016 2.1864C7.69141 3.09786 8.08203 4.31856 8.08203 5.84851C8.08203 7.63888 7.54492 9.34786 6.4707 10.9755C5.39648 12.5705 3.70378 14.1493 1.39258 15.7118L0.220703 14.2469C3.67122 11.6753 5.39648 9.36414 5.39648 7.31335C5.39648 6.98783 5.28255 6.82507 5.05469 6.82507H4.07812ZM13.4531 6.82507C12.4115 6.82507 11.5651 6.56466 10.9141 6.04382C10.263 5.49044 9.9375 4.75802 9.9375 3.84656C9.9375 3.0002 10.263 2.28406 10.9141 1.69812C11.5651 1.07963 12.3626 0.770386 13.3066 0.770386C14.5762 0.770386 15.5853 1.24239 16.334 2.1864C17.1152 3.09786 17.5059 4.31856 17.5059 5.84851C17.5059 9.33158 15.276 12.6193 10.8164 15.7118L9.64453 14.2469C13.0951 11.7079 14.8203 9.39669 14.8203 7.31335C14.8203 6.98783 14.6901 6.82507 14.4297 6.82507H13.4531Z" fill="#8D0000"/>
</svg>
