<svg width="18" height="16" viewBox="0 0 18 16" fill="none" xmlns="http://www.w3.org/2000/svg">
<path d="M17.6523 2.23523C15.862 3.50476 14.5436 4.72546 13.6973 5.89734C12.8509 7.03666 12.4277 8.14343 12.4277 9.21765C12.4277 9.54317 12.5579 9.70593 12.8184 9.70593L13.8926 9.60828C14.9017 9.60828 15.7155 9.88497 16.334 10.4384C16.9525 10.9592 17.2617 11.6753 17.2617 12.5868C17.2617 13.4983 16.9362 14.2469 16.2852 14.8329C15.6667 15.4188 14.8854 15.7118 13.9414 15.7118C12.7044 15.7118 11.6953 15.2723 10.9141 14.3934C10.1328 13.482 9.74219 12.245 9.74219 10.6825C9.74219 8.85958 10.2793 7.15059 11.3535 5.55554C12.4603 3.92794 14.153 2.33289 16.4316 0.770386L17.6523 2.23523ZM8.27734 2.23523C6.71484 3.21179 5.44531 4.35111 4.46875 5.6532C3.49219 6.95528 3.00391 8.14343 3.00391 9.21765C3.00391 9.54317 3.13411 9.70593 3.39453 9.70593L4.41992 9.60828C5.46159 9.60828 6.29167 9.88497 6.91016 10.4384C7.52865 10.9592 7.83789 11.6753 7.83789 12.5868C7.83789 13.4983 7.51237 14.2469 6.86133 14.8329C6.24284 15.4188 5.46159 15.7118 4.51758 15.7118C3.2806 15.7118 2.27148 15.2723 1.49023 14.3934C0.741536 13.482 0.367188 12.245 0.367188 10.6825C0.367188 8.85958 0.904297 7.15059 1.97852 5.55554C3.05273 3.92794 4.72917 2.33289 7.00781 0.770386L8.27734 2.23523Z" fill="#8D0000"/>
</svg>
