<svg width="21" height="21" viewBox="0 0 21 21" fill="none" xmlns="http://www.w3.org/2000/svg">
<g id="Platform=Facebook, Color=Negative" clip-path="url(#clip0_70_576)">
<path id="Vector" d="M10.4998 0C4.70097 0 0 4.71833 0 10.5386C0 15.4807 3.39017 19.6279 7.96346 20.7669V13.7592H5.7984V10.5386H7.96346V9.15085C7.96346 5.56394 9.58085 3.90138 13.0895 3.90138C13.7547 3.90138 14.9026 4.03248 15.3721 4.16316V7.08234C15.1243 7.05621 14.6938 7.04314 14.1592 7.04314C12.4376 7.04314 11.7724 7.69779 11.7724 9.39956V10.5386H15.202L14.6128 13.7592H11.7724V21C16.9714 20.3698 21 15.9267 21 10.5386C20.9996 4.71833 16.2986 0 10.4998 0Z" fill="white"/>
</g>
<defs>
<clipPath id="clip0_70_576">
<rect width="21" height="21" fill="white"/>
</clipPath>
</defs>
</svg>
