<svg width="46" height="32" viewBox="0 0 46 32" fill="none" xmlns="http://www.w3.org/2000/svg">
<path d="M1.625 9.25L6.5 15.75L11.375 9.25" stroke="#8D0000" stroke-width="2" stroke-linecap="round" stroke-linejoin="round"/>
<path d="M18.7614 19V4.45455H27.483V6.01705H20.5227V10.9318H26.8295V12.4943H20.5227V19H18.7614ZM30.4996 19V4.45455H35.4144C36.5508 4.45455 37.4835 4.64867 38.2127 5.03693C38.9419 5.42045 39.4817 5.94839 39.832 6.62074C40.1824 7.29309 40.3576 8.05777 40.3576 8.91477C40.3576 9.77178 40.1824 10.5317 39.832 11.1946C39.4817 11.8575 38.9442 12.3783 38.2198 12.7571C37.4954 13.1312 36.5697 13.3182 35.4428 13.3182H31.4656V11.7273H35.386C36.1625 11.7273 36.7875 11.6136 37.261 11.3864C37.7392 11.1591 38.0849 10.8371 38.2979 10.4205C38.5157 9.99905 38.6246 9.49716 38.6246 8.91477C38.6246 8.33239 38.5157 7.82339 38.2979 7.38778C38.0801 6.95218 37.7321 6.616 37.2539 6.37926C36.7757 6.13778 36.1436 6.01705 35.3576 6.01705H32.261V19H30.4996ZM37.3462 12.4659L40.9258 19H38.8803L35.3576 12.4659H37.3462Z" fill="white"/>
</svg>
